# xmcd CD database file
#
# Track frame offsets:
#	150
#	14557
#	23417
#	40342
#	51762
#	64050
#	72310
#	78360
#	86245
#	98387
#	110792
#	120885
#	130490
#	144650
#	152092
#	164284
#
# Disc length: 2321 seconds
#
# Revision: 0
# Processed by: cddbd v1.5.1PL0 Copyright (c) Steve Scherf et al.
# Submitted via: CDex 1.51
#
DISCID=d1090f10
DTITLE=LINK 80 - the struggle continues...
DYEAR=1900
DGENRE=Ska-Core
TTITLE0=Adiction
TTITLE1=Evil Town
TTITLE2=Right Hook
TTITLE3=Intolerance
TTITLE4=Nothing New
TTITLE5=Resist in G Minor
TTITLE6=Step Up
TTITLE7=Face Down
TTITLE8=My Girl
TTITLE9=Past Tense
TTITLE10=Time For Change
TTITLE11=Tengo Nada
TTITLE12=Peril After Perli
TTITLE13=Unbroken
TTITLE14=Kind Of...
TTITLE15=hidden track
EXTD=
EXTT0=
EXTT1=
EXTT2=
EXTT3=
EXTT4=
EXTT5=
EXTT6=
EXTT7=
EXTT8=
EXTT9=
EXTT10=
EXTT11=
EXTT12=
EXTT13=
EXTT14=
EXTT15=
PLAYORDER=
